# xmcd
#
# Track frame offsets: 
#        150
#        32514
#        51410
#        75858
#        104794
#        139074
#        177304
#        194946
#        226983
#
# Disc length: 3361 seconds
#
# Revision: 2
# Processed by: cddbd v1.5.2PL0 Copyright (c) Steve Scherf et al.
# Submitted via: ExactAudioCopyFreeDBPlugin 1.0
#
DISCID=7b0d1f09
DTITLE=LCD Soundsystem - Sound Of Silver
DYEAR=2007
DGENRE=Dance-Punk
TTITLE0=Get Innocuous!
TTITLE1=Time To Get Away
TTITLE2=North American Scum
TTITLE3=Someone Great
TTITLE4=All My Friends
TTITLE5=Us v Them
TTITLE6=Watch The Tapes
TTITLE7=Sound Of Silver
TTITLE8=New York, I Love You But You're Bringing Me Down
EXTD=
EXTT0=
EXTT1=
EXTT2=
EXTT3=
EXTT4=
EXTT5=
EXTT6=
EXTT7=
EXTT8=
PLAYORDER=
